<mxfile host="app.diagrams.net" agent="Mozilla/5.0 (Windows NT 10.0; Win64; x64) AppleWebKit/537.36 (KHTML, like Gecko) Chrome/137.0.0.0 Safari/537.36" version="27.1.6">
  <diagram name="Page-1" id="Opso4wRMeq8mpIUB8wvP">
    <mxGraphModel dx="1426" dy="777" grid="1" gridSize="10" guides="1" tooltips="1" connect="1" arrows="1" fold="1" page="1" pageScale="1" pageWidth="2336" pageHeight="1654" math="0" shadow="0">
      <root>
        <mxCell id="0" />
        <mxCell id="1" parent="0" />
        <mxCell id="MqRuFLgZDir7rN1xoeyy-1" value="" style="rounded=1;whiteSpace=wrap;html=1;fillColor=#dae8fc;strokeColor=#6c8ebf;" vertex="1" parent="1">
          <mxGeometry x="1640" y="840" width="610" height="530" as="geometry" />
        </mxCell>
        <mxCell id="MqRuFLgZDir7rN1xoeyy-2" style="edgeStyle=orthogonalEdgeStyle;rounded=0;orthogonalLoop=1;jettySize=auto;html=1;entryX=0;entryY=0.5;entryDx=0;entryDy=0;" edge="1" parent="1" source="MqRuFLgZDir7rN1xoeyy-4" target="MqRuFLgZDir7rN1xoeyy-60">
          <mxGeometry relative="1" as="geometry" />
        </mxCell>
        <mxCell id="MqRuFLgZDir7rN1xoeyy-3" style="edgeStyle=orthogonalEdgeStyle;rounded=0;orthogonalLoop=1;jettySize=auto;html=1;entryX=0;entryY=0.5;entryDx=0;entryDy=0;" edge="1" parent="1" source="MqRuFLgZDir7rN1xoeyy-4" target="MqRuFLgZDir7rN1xoeyy-56">
          <mxGeometry relative="1" as="geometry" />
        </mxCell>
        <mxCell id="MqRuFLgZDir7rN1xoeyy-4" value="" style="rounded=1;whiteSpace=wrap;html=1;fillColor=#e1d5e7;strokeColor=#9673a6;" vertex="1" parent="1">
          <mxGeometry x="1190" y="840" width="330" height="530" as="geometry" />
        </mxCell>
        <mxCell id="MqRuFLgZDir7rN1xoeyy-5" value="" style="rounded=1;whiteSpace=wrap;html=1;fillColor=#d5e8d4;strokeColor=#82b366;" vertex="1" parent="1">
          <mxGeometry x="590" y="840" width="490" height="530" as="geometry" />
        </mxCell>
        <mxCell id="MqRuFLgZDir7rN1xoeyy-6" value="" style="rounded=1;whiteSpace=wrap;html=1;fillColor=#fff2cc;strokeColor=#d6b656;" vertex="1" parent="1">
          <mxGeometry x="580" y="430" width="1060" height="300" as="geometry" />
        </mxCell>
        <mxCell id="MqRuFLgZDir7rN1xoeyy-7" value="Pre-Processing Location Extract Data" style="text;html=1;align=center;verticalAlign=middle;whiteSpace=wrap;rounded=0;fontStyle=1;fontSize=16;" vertex="1" parent="1">
          <mxGeometry x="755" y="440" width="355" height="30" as="geometry" />
        </mxCell>
        <mxCell id="MqRuFLgZDir7rN1xoeyy-8" style="edgeStyle=orthogonalEdgeStyle;rounded=0;orthogonalLoop=1;jettySize=auto;html=1;entryX=0;entryY=0.5;entryDx=0;entryDy=0;" edge="1" parent="1" source="MqRuFLgZDir7rN1xoeyy-9" target="MqRuFLgZDir7rN1xoeyy-11">
          <mxGeometry relative="1" as="geometry" />
        </mxCell>
        <mxCell id="MqRuFLgZDir7rN1xoeyy-9" value="src/etl/udal_extracts" style="rounded=1;whiteSpace=wrap;html=1;verticalAlign=top;fontStyle=1" vertex="1" parent="1">
          <mxGeometry x="600" y="490" width="140" height="210" as="geometry" />
        </mxCell>
        <mxCell id="MqRuFLgZDir7rN1xoeyy-10" value="" style="edgeStyle=orthogonalEdgeStyle;rounded=0;orthogonalLoop=1;jettySize=auto;html=1;" edge="1" parent="1" source="MqRuFLgZDir7rN1xoeyy-11" target="MqRuFLgZDir7rN1xoeyy-15">
          <mxGeometry relative="1" as="geometry" />
        </mxCell>
        <mxCell id="MqRuFLgZDir7rN1xoeyy-11" value="data/contextual" style="rounded=1;whiteSpace=wrap;html=1;verticalAlign=top;fontStyle=1" vertex="1" parent="1">
          <mxGeometry x="800" y="490" width="140" height="210" as="geometry" />
        </mxCell>
        <mxCell id="MqRuFLgZDir7rN1xoeyy-12" value="" style="shape=image;html=1;verticalAlign=top;verticalLabelPosition=bottom;labelBackgroundColor=#ffffff;imageAspect=0;aspect=fixed;image=https://cdn3.iconfinder.com/data/icons/cad-database-presentation-spreadsheet-vector-fil-2/512/22-128.png" vertex="1" parent="1">
          <mxGeometry x="836" y="561" width="68" height="68" as="geometry" />
        </mxCell>
        <mxCell id="MqRuFLgZDir7rN1xoeyy-13" value="" style="image;aspect=fixed;html=1;points=[];align=center;fontSize=12;image=img/lib/azure2/databases/SQL_Server_Registries.svg;" vertex="1" parent="1">
          <mxGeometry x="636" y="561" width="68" height="62" as="geometry" />
        </mxCell>
        <mxCell id="MqRuFLgZDir7rN1xoeyy-14" value="" style="edgeStyle=orthogonalEdgeStyle;rounded=0;orthogonalLoop=1;jettySize=auto;html=1;" edge="1" parent="1" source="MqRuFLgZDir7rN1xoeyy-15" target="MqRuFLgZDir7rN1xoeyy-21">
          <mxGeometry relative="1" as="geometry" />
        </mxCell>
        <mxCell id="MqRuFLgZDir7rN1xoeyy-15" value="src/etl/load" style="rounded=1;whiteSpace=wrap;html=1;verticalAlign=top;fontStyle=1" vertex="1" parent="1">
          <mxGeometry x="1020" y="490" width="140" height="210" as="geometry" />
        </mxCell>
        <mxCell id="MqRuFLgZDir7rN1xoeyy-16" value="" style="verticalLabelPosition=bottom;html=1;verticalAlign=top;align=center;strokeColor=none;fillColor=#00BEF2;shape=mxgraph.azure.script_file;pointerEvents=1;" vertex="1" parent="1">
          <mxGeometry x="1066.25" y="573" width="47.5" height="50" as="geometry" />
        </mxCell>
        <mxCell id="MqRuFLgZDir7rN1xoeyy-17" value="data exports from UDAL UKHF" style="text;html=1;align=center;verticalAlign=middle;whiteSpace=wrap;rounded=0;" vertex="1" parent="1">
          <mxGeometry x="620" y="660" width="100" height="30" as="geometry" />
        </mxCell>
        <mxCell id="MqRuFLgZDir7rN1xoeyy-18" value="exports saved as .xlsx" style="text;html=1;align=center;verticalAlign=middle;whiteSpace=wrap;rounded=0;" vertex="1" parent="1">
          <mxGeometry x="820" y="660" width="100" height="30" as="geometry" />
        </mxCell>
        <mxCell id="MqRuFLgZDir7rN1xoeyy-19" value="R files to load locations data" style="text;html=1;align=center;verticalAlign=middle;whiteSpace=wrap;rounded=0;" vertex="1" parent="1">
          <mxGeometry x="1040" y="660" width="100" height="30" as="geometry" />
        </mxCell>
        <mxCell id="MqRuFLgZDir7rN1xoeyy-20" value="" style="edgeStyle=orthogonalEdgeStyle;rounded=0;orthogonalLoop=1;jettySize=auto;html=1;" edge="1" parent="1" source="MqRuFLgZDir7rN1xoeyy-21" target="MqRuFLgZDir7rN1xoeyy-25">
          <mxGeometry relative="1" as="geometry" />
        </mxCell>
        <mxCell id="MqRuFLgZDir7rN1xoeyy-21" value="src/etl/process" style="rounded=1;whiteSpace=wrap;html=1;verticalAlign=top;fontStyle=1" vertex="1" parent="1">
          <mxGeometry x="1240" y="490" width="140" height="210" as="geometry" />
        </mxCell>
        <mxCell id="MqRuFLgZDir7rN1xoeyy-22" value="" style="verticalLabelPosition=bottom;html=1;verticalAlign=top;align=center;strokeColor=none;fillColor=#00BEF2;shape=mxgraph.azure.script_file;pointerEvents=1;" vertex="1" parent="1">
          <mxGeometry x="1286.25" y="573" width="47.5" height="50" as="geometry" />
        </mxCell>
        <mxCell id="MqRuFLgZDir7rN1xoeyy-23" value="R files to generate long/lat data for assest and join contextual data" style="text;html=1;align=center;verticalAlign=middle;whiteSpace=wrap;rounded=0;" vertex="1" parent="1">
          <mxGeometry x="1260" y="630" width="100" height="60" as="geometry" />
        </mxCell>
        <mxCell id="MqRuFLgZDir7rN1xoeyy-24" style="edgeStyle=orthogonalEdgeStyle;rounded=0;orthogonalLoop=1;jettySize=auto;html=1;entryX=0.5;entryY=0;entryDx=0;entryDy=0;exitX=0.5;exitY=1;exitDx=0;exitDy=0;" edge="1" parent="1" source="MqRuFLgZDir7rN1xoeyy-25" target="MqRuFLgZDir7rN1xoeyy-30">
          <mxGeometry relative="1" as="geometry" />
        </mxCell>
        <mxCell id="MqRuFLgZDir7rN1xoeyy-25" value="&lt;font style=&quot;font-size: 10px;&quot;&gt;data/processed/contextual&lt;/font&gt;" style="rounded=1;whiteSpace=wrap;html=1;verticalAlign=top;fontStyle=1" vertex="1" parent="1">
          <mxGeometry x="1460" y="490" width="140" height="210" as="geometry" />
        </mxCell>
        <mxCell id="MqRuFLgZDir7rN1xoeyy-26" value="processed asset locations written to csv" style="text;html=1;align=center;verticalAlign=middle;whiteSpace=wrap;rounded=0;" vertex="1" parent="1">
          <mxGeometry x="1480" y="660" width="100" height="30" as="geometry" />
        </mxCell>
        <mxCell id="MqRuFLgZDir7rN1xoeyy-27" value="" style="shape=image;html=1;verticalAlign=top;verticalLabelPosition=bottom;labelBackgroundColor=#ffffff;imageAspect=0;aspect=fixed;image=https://cdn3.iconfinder.com/data/icons/cad-database-presentation-spreadsheet-vector-fil-2/512/19-128.png" vertex="1" parent="1">
          <mxGeometry x="1495" y="561" width="70" height="70" as="geometry" />
        </mxCell>
        <mxCell id="MqRuFLgZDir7rN1xoeyy-28" value="&lt;h1 style=&quot;margin-top: 0px;&quot;&gt;&lt;span style=&quot;background-color: transparent; color: light-dark(rgb(0, 0, 0), rgb(255, 255, 255));&quot;&gt;Pipeline for Asset Mapping Shiny App&lt;/span&gt;&lt;/h1&gt;&lt;h1 style=&quot;margin-top: 0px;&quot;&gt;&lt;span style=&quot;background-color: transparent; color: light-dark(rgb(0, 0, 0), rgb(255, 255, 255)); font-size: 12px; font-weight: normal;&quot;&gt;The diagram below demonstrates the data pipeline for creating the Asset Mapping Shiny App. This includes the pre-processing steps of assigning necessary location data to assets.&lt;/span&gt;&lt;/h1&gt;" style="text;html=1;whiteSpace=wrap;overflow=hidden;rounded=0;" vertex="1" parent="1">
          <mxGeometry x="590" y="260" width="500" height="130" as="geometry" />
        </mxCell>
        <mxCell id="MqRuFLgZDir7rN1xoeyy-29" style="edgeStyle=orthogonalEdgeStyle;rounded=0;orthogonalLoop=1;jettySize=auto;html=1;entryX=0;entryY=0.5;entryDx=0;entryDy=0;" edge="1" parent="1" source="MqRuFLgZDir7rN1xoeyy-30" target="MqRuFLgZDir7rN1xoeyy-43">
          <mxGeometry relative="1" as="geometry" />
        </mxCell>
        <mxCell id="MqRuFLgZDir7rN1xoeyy-30" value="src/etl/load_processed" style="rounded=1;whiteSpace=wrap;html=1;verticalAlign=top;fontStyle=1" vertex="1" parent="1">
          <mxGeometry x="620" y="890" width="140" height="210" as="geometry" />
        </mxCell>
        <mxCell id="MqRuFLgZDir7rN1xoeyy-31" value="" style="verticalLabelPosition=bottom;html=1;verticalAlign=top;align=center;strokeColor=none;fillColor=#00BEF2;shape=mxgraph.azure.script_file;pointerEvents=1;" vertex="1" parent="1">
          <mxGeometry x="666.25" y="973" width="47.5" height="50" as="geometry" />
        </mxCell>
        <mxCell id="MqRuFLgZDir7rN1xoeyy-32" value="R files to load processed datasets" style="text;html=1;align=center;verticalAlign=middle;whiteSpace=wrap;rounded=0;" vertex="1" parent="1">
          <mxGeometry x="640" y="1060" width="100" height="30" as="geometry" />
        </mxCell>
        <mxCell id="MqRuFLgZDir7rN1xoeyy-33" value="Load Processed and Geospatial Data" style="text;html=1;align=center;verticalAlign=middle;whiteSpace=wrap;rounded=0;fontStyle=1;fontSize=16;" vertex="1" parent="1">
          <mxGeometry x="670" y="850" width="355" height="30" as="geometry" />
        </mxCell>
        <mxCell id="MqRuFLgZDir7rN1xoeyy-34" style="edgeStyle=orthogonalEdgeStyle;rounded=0;orthogonalLoop=1;jettySize=auto;html=1;entryX=0;entryY=0.5;entryDx=0;entryDy=0;" edge="1" parent="1" source="MqRuFLgZDir7rN1xoeyy-35" target="MqRuFLgZDir7rN1xoeyy-43">
          <mxGeometry relative="1" as="geometry" />
        </mxCell>
        <mxCell id="MqRuFLgZDir7rN1xoeyy-35" value="src/etl/load_geospatial" style="rounded=1;whiteSpace=wrap;html=1;verticalAlign=top;fontStyle=1" vertex="1" parent="1">
          <mxGeometry x="900" y="1120" width="140" height="210" as="geometry" />
        </mxCell>
        <mxCell id="MqRuFLgZDir7rN1xoeyy-36" value="" style="verticalLabelPosition=bottom;html=1;verticalAlign=top;align=center;strokeColor=none;fillColor=#00BEF2;shape=mxgraph.azure.script_file;pointerEvents=1;" vertex="1" parent="1">
          <mxGeometry x="946.25" y="1203" width="47.5" height="50" as="geometry" />
        </mxCell>
        <mxCell id="MqRuFLgZDir7rN1xoeyy-37" value="R files to load geospatial data" style="text;html=1;align=center;verticalAlign=middle;whiteSpace=wrap;rounded=0;" vertex="1" parent="1">
          <mxGeometry x="920" y="1290" width="100" height="30" as="geometry" />
        </mxCell>
        <mxCell id="MqRuFLgZDir7rN1xoeyy-38" style="edgeStyle=orthogonalEdgeStyle;rounded=0;orthogonalLoop=1;jettySize=auto;html=1;" edge="1" parent="1" source="MqRuFLgZDir7rN1xoeyy-39" target="MqRuFLgZDir7rN1xoeyy-35">
          <mxGeometry relative="1" as="geometry" />
        </mxCell>
        <mxCell id="MqRuFLgZDir7rN1xoeyy-39" value="data/geospatial" style="rounded=1;whiteSpace=wrap;html=1;verticalAlign=top;fontStyle=1" vertex="1" parent="1">
          <mxGeometry x="620" y="1120" width="140" height="210" as="geometry" />
        </mxCell>
        <mxCell id="MqRuFLgZDir7rN1xoeyy-40" value=".shp and .geojson files" style="text;html=1;align=center;verticalAlign=middle;whiteSpace=wrap;rounded=0;" vertex="1" parent="1">
          <mxGeometry x="640" y="1290" width="100" height="30" as="geometry" />
        </mxCell>
        <mxCell id="MqRuFLgZDir7rN1xoeyy-41" value="" style="dashed=0;outlineConnect=0;html=1;align=center;labelPosition=center;verticalLabelPosition=bottom;verticalAlign=top;shape=mxgraph.weblogos.json" vertex="1" parent="1">
          <mxGeometry x="650" y="1187.1" width="70" height="75.8" as="geometry" />
        </mxCell>
        <mxCell id="MqRuFLgZDir7rN1xoeyy-42" value="Visualisations" style="text;html=1;align=center;verticalAlign=middle;whiteSpace=wrap;rounded=0;fontStyle=1;fontSize=16;" vertex="1" parent="1">
          <mxGeometry x="1270" y="850" width="170" height="30" as="geometry" />
        </mxCell>
        <mxCell id="MqRuFLgZDir7rN1xoeyy-43" value="src/visualtion" style="rounded=1;whiteSpace=wrap;html=1;verticalAlign=top;fontStyle=1" vertex="1" parent="1">
          <mxGeometry x="1280" y="890" width="140" height="210" as="geometry" />
        </mxCell>
        <mxCell id="MqRuFLgZDir7rN1xoeyy-44" value="R script for creating map" style="text;html=1;align=center;verticalAlign=middle;whiteSpace=wrap;rounded=0;" vertex="1" parent="1">
          <mxGeometry x="1300" y="1060" width="100" height="30" as="geometry" />
        </mxCell>
        <mxCell id="MqRuFLgZDir7rN1xoeyy-45" value="" style="verticalLabelPosition=bottom;html=1;verticalAlign=top;align=center;strokeColor=none;fillColor=#00BEF2;shape=mxgraph.azure.script_file;pointerEvents=1;" vertex="1" parent="1">
          <mxGeometry x="1326.25" y="950" width="47.5" height="50" as="geometry" />
        </mxCell>
        <mxCell id="MqRuFLgZDir7rN1xoeyy-46" value="App" style="text;html=1;align=center;verticalAlign=middle;whiteSpace=wrap;rounded=0;fontStyle=1;fontSize=16;" vertex="1" parent="1">
          <mxGeometry x="1815" y="850" width="170" height="30" as="geometry" />
        </mxCell>
        <mxCell id="MqRuFLgZDir7rN1xoeyy-47" style="edgeStyle=orthogonalEdgeStyle;rounded=0;orthogonalLoop=1;jettySize=auto;html=1;entryX=0.5;entryY=1;entryDx=0;entryDy=0;" edge="1" parent="1" source="MqRuFLgZDir7rN1xoeyy-48" target="MqRuFLgZDir7rN1xoeyy-43">
          <mxGeometry relative="1" as="geometry" />
        </mxCell>
        <mxCell id="MqRuFLgZDir7rN1xoeyy-48" value="src/config" style="rounded=1;whiteSpace=wrap;html=1;verticalAlign=top;fontStyle=1" vertex="1" parent="1">
          <mxGeometry x="1280" y="1130" width="140" height="210" as="geometry" />
        </mxCell>
        <mxCell id="MqRuFLgZDir7rN1xoeyy-49" value="config files for customising map appearance" style="text;html=1;align=center;verticalAlign=middle;whiteSpace=wrap;rounded=0;" vertex="1" parent="1">
          <mxGeometry x="1300" y="1300" width="100" height="30" as="geometry" />
        </mxCell>
        <mxCell id="MqRuFLgZDir7rN1xoeyy-50" value="" style="verticalLabelPosition=bottom;html=1;verticalAlign=top;align=center;strokeColor=none;fillColor=#00BEF2;shape=mxgraph.azure.script_file;pointerEvents=1;" vertex="1" parent="1">
          <mxGeometry x="1326.25" y="1220" width="47.5" height="50" as="geometry" />
        </mxCell>
        <mxCell id="MqRuFLgZDir7rN1xoeyy-51" style="edgeStyle=orthogonalEdgeStyle;rounded=0;orthogonalLoop=1;jettySize=auto;html=1;entryX=1;entryY=0.5;entryDx=0;entryDy=0;dashed=1;" edge="1" parent="1" source="MqRuFLgZDir7rN1xoeyy-52" target="MqRuFLgZDir7rN1xoeyy-56">
          <mxGeometry relative="1" as="geometry" />
        </mxCell>
        <mxCell id="MqRuFLgZDir7rN1xoeyy-52" value="www/config" style="rounded=1;whiteSpace=wrap;html=1;verticalAlign=top;fontStyle=1" vertex="1" parent="1">
          <mxGeometry x="2070" y="893" width="140" height="210" as="geometry" />
        </mxCell>
        <mxCell id="MqRuFLgZDir7rN1xoeyy-53" value="" style="verticalLabelPosition=bottom;html=1;verticalAlign=top;align=center;strokeColor=none;fillColor=#00BEF2;shape=mxgraph.azure.script_file;pointerEvents=1;" vertex="1" parent="1">
          <mxGeometry x="2116.25" y="940" width="47.5" height="50" as="geometry" />
        </mxCell>
        <mxCell id="MqRuFLgZDir7rN1xoeyy-54" value="config files for app apperance" style="text;html=1;align=center;verticalAlign=middle;whiteSpace=wrap;rounded=0;" vertex="1" parent="1">
          <mxGeometry x="2090" y="1060" width="100" height="30" as="geometry" />
        </mxCell>
        <mxCell id="MqRuFLgZDir7rN1xoeyy-55" style="edgeStyle=orthogonalEdgeStyle;rounded=0;orthogonalLoop=1;jettySize=auto;html=1;entryX=0;entryY=0.5;entryDx=0;entryDy=0;" edge="1" parent="1" source="MqRuFLgZDir7rN1xoeyy-56" target="MqRuFLgZDir7rN1xoeyy-63">
          <mxGeometry relative="1" as="geometry" />
        </mxCell>
        <mxCell id="MqRuFLgZDir7rN1xoeyy-56" value="src/app/ui.R" style="rounded=1;whiteSpace=wrap;html=1;verticalAlign=top;fontStyle=1" vertex="1" parent="1">
          <mxGeometry x="1668" y="893" width="140" height="210" as="geometry" />
        </mxCell>
        <mxCell id="MqRuFLgZDir7rN1xoeyy-57" value="" style="verticalLabelPosition=bottom;html=1;verticalAlign=top;align=center;strokeColor=none;fillColor=#00BEF2;shape=mxgraph.azure.script_file;pointerEvents=1;" vertex="1" parent="1">
          <mxGeometry x="1716.25" y="950" width="47.5" height="50" as="geometry" />
        </mxCell>
        <mxCell id="MqRuFLgZDir7rN1xoeyy-58" value="User Interface R file." style="text;html=1;align=center;verticalAlign=middle;whiteSpace=wrap;rounded=0;" vertex="1" parent="1">
          <mxGeometry x="1690" y="1060" width="100" height="30" as="geometry" />
        </mxCell>
        <mxCell id="MqRuFLgZDir7rN1xoeyy-59" style="edgeStyle=orthogonalEdgeStyle;rounded=0;orthogonalLoop=1;jettySize=auto;html=1;entryX=0;entryY=0.5;entryDx=0;entryDy=0;" edge="1" parent="1" source="MqRuFLgZDir7rN1xoeyy-60" target="MqRuFLgZDir7rN1xoeyy-63">
          <mxGeometry relative="1" as="geometry" />
        </mxCell>
        <mxCell id="MqRuFLgZDir7rN1xoeyy-60" value="src/app/server.R" style="rounded=1;whiteSpace=wrap;html=1;verticalAlign=top;fontStyle=1" vertex="1" parent="1">
          <mxGeometry x="1668" y="1140" width="140" height="210" as="geometry" />
        </mxCell>
        <mxCell id="MqRuFLgZDir7rN1xoeyy-61" value="" style="verticalLabelPosition=bottom;html=1;verticalAlign=top;align=center;strokeColor=none;fillColor=#00BEF2;shape=mxgraph.azure.script_file;pointerEvents=1;" vertex="1" parent="1">
          <mxGeometry x="1716.25" y="1220" width="47.5" height="50" as="geometry" />
        </mxCell>
        <mxCell id="MqRuFLgZDir7rN1xoeyy-62" value="User Interface R file." style="text;html=1;align=center;verticalAlign=middle;whiteSpace=wrap;rounded=0;" vertex="1" parent="1">
          <mxGeometry x="1690" y="1307" width="100" height="30" as="geometry" />
        </mxCell>
        <mxCell id="MqRuFLgZDir7rN1xoeyy-63" value="app.R" style="rounded=1;whiteSpace=wrap;html=1;verticalAlign=top;fontStyle=1" vertex="1" parent="1">
          <mxGeometry x="1890" y="1020" width="140" height="210" as="geometry" />
        </mxCell>
        <mxCell id="MqRuFLgZDir7rN1xoeyy-64" value="" style="verticalLabelPosition=bottom;html=1;verticalAlign=top;align=center;strokeColor=none;fillColor=#00BEF2;shape=mxgraph.azure.script_file;pointerEvents=1;" vertex="1" parent="1">
          <mxGeometry x="1937.5" y="1100" width="47.5" height="50" as="geometry" />
        </mxCell>
        <mxCell id="MqRuFLgZDir7rN1xoeyy-65" value="shiny app file" style="text;html=1;align=center;verticalAlign=middle;whiteSpace=wrap;rounded=0;" vertex="1" parent="1">
          <mxGeometry x="1911.25" y="1190" width="100" height="30" as="geometry" />
        </mxCell>
      </root>
    </mxGraphModel>
  </diagram>
</mxfile>
